<?xml version="1.0" encoding="iso-8859-1"?>
<!-- Generator: Adobe Illustrator 16.0.0, SVG Export Plug-In . SVG Version: 6.00 Build 0)  -->
<!DOCTYPE svg PUBLIC "-//W3C//DTD SVG 1.1//EN" "http://www.w3.org/Graphics/SVG/1.1/DTD/svg11.dtd">
<svg version="1.1" id="Capa_1" xmlns="http://www.w3.org/2000/svg" xmlns:xlink="http://www.w3.org/1999/xlink" x="0px" y="0px"
	 width="612.004px" height="612.004px" viewBox="0 0 612.004 612.004" style="enable-background:new 0 0 612.004 612.004;"
	 xml:space="preserve">
<g>
	<g id="Shape_7_2_">
		<g>
			<path d="M612.004,599.48L406.262,398.09l0,0c44.966-44.004,69.746-102.53,69.729-164.761c0-62.231-24.763-120.757-69.729-164.761
				C361.297,24.564,301.531,0.325,237.937,0.325S114.575,24.564,69.61,68.568c-92.813,90.856-92.813,238.683,0,329.522
				c44.965,44.004,104.732,68.243,168.326,68.243c56.866,0,111.879-19.922,154.904-56.062c0.175-0.14,0.314-0.297,0.489-0.437
				l206.214,201.845L612.004,599.48z M237.937,449.084c-58.876,0-114.222-22.438-155.866-63.191
				c-85.928-84.111-85.928-220.999,0-305.109c41.645-40.753,96.99-63.192,155.866-63.192c58.875,0,114.221,22.439,155.848,63.192
				c41.645,40.753,64.573,94.928,64.573,152.563c0.018,57.635-22.929,111.81-64.573,152.563c-4.02,3.949-8.179,7.706-12.425,11.289
				C341.532,430.647,290.591,449.084,237.937,449.084z"/>
		</g>
	</g>
</g>
<g>
</g>
<g>
</g>
<g>
</g>
<g>
</g>
<g>
</g>
<g>
</g>
<g>
</g>
<g>
</g>
<g>
</g>
<g>
</g>
<g>
</g>
<g>
</g>
<g>
</g>
<g>
</g>
<g>
</g>
</svg>
